<?xml version="1.0" encoding="utf-8"?>
<!-- Generator: Adobe Illustrator 27.5.0, SVG Export Plug-In . SVG Version: 6.00 Build 0)  -->
<svg version="1.1" xmlns="http://www.w3.org/2000/svg" xmlns:xlink="http://www.w3.org/1999/xlink" x="0px" y="0px"
	 viewBox="0 0 500 500" style="enable-background:new 0 0 500 500;" xml:space="preserve">
<g id="BACKGROUND">
	<rect style="fill:#FFFFFF;" width="500" height="500"/>
</g>
<g id="OBJECTS">
	<g>
		<defs>
			<rect id="SVGID_1_" width="500" height="500"/>
		</defs>
		<clipPath id="SVGID_00000161616569392211375600000017457314716259981492_">
			<use xlink:href="#SVGID_1_"  style="overflow:visible;"/>
		</clipPath>
		<g style="clip-path:url(#SVGID_00000161616569392211375600000017457314716259981492_);">
			<g>
				<g>
					<g>
						<path style="fill:#FFFDFD;stroke:#020106;stroke-miterlimit:10;" d="M295.419,164.302c0.955,0.416,24.371,1.201,63.453,33.246
							c0,0,27.786,31.282,26.085,61.527s-49.844,29.752-61.411,18.9C311.98,267.123,295.419,164.302,295.419,164.302z"/>
						<g>
							<polyline style="fill:#FFFDFD;stroke:#020106;stroke-miterlimit:10;" points="346.709,210.911 368.604,155.359 
								413.458,164.974 392.968,262.458 372.609,268.51 							"/>
							<g>
								<g>
									<path style="fill:#FFFDFD;stroke:#020106;stroke-miterlimit:10;" d="M385.331,108.645
										c-4.121-8.586-13.68-36.251-7.85-38.83c4.084-1.806,10.805,11.481,14.643,19.011c2.174-15.608,4.144-33.905,8.684-35.922
										c5.315-2.361,4.324,16.688,4.056,23.963c1.246-4.959,5.28-21.737,8.216-21.635c4.212,0.147,2.616,19.038,2.698,27.029
										c1.758-7.451,4.4-25.176,7.928-24.389c4.887,1.09,2.624,20.27,1.106,28.213c1.671-7.577,7.081-24.391,10.967-22.092
										c4.194,2.481-1.776,34.04-1.776,34.04l-17.302,64.974l-43.03-19.258C373.672,143.749,382.727,120.956,385.331,108.645z"/>
									<path style="fill:none;stroke:#020106;stroke-miterlimit:10;" d="M392.124,88.827c0,0,9.578,13.834,9.606,23.299"/>
								</g>
								<path style="fill:#F9B4CD;stroke:#020106;stroke-miterlimit:10;" d="M406.794,178.849l-36.872-10.357
									c-6.867-1.929-10.87-9.06-8.941-15.927l0,0c1.929-6.867,9.06-10.87,15.927-8.941l36.872,10.357
									c6.867,1.929,10.87,9.06,8.941,15.927v0C420.792,176.774,413.661,180.777,406.794,178.849z"/>
							</g>
						</g>
					</g>
					<path style="fill:#FFFDFD;stroke:#020106;stroke-miterlimit:10;" d="M263.125,161.889c0,0-52.472,3.664-99.694,62.127
						c-47.222,58.463-27.289,106.286,1.005,120.749c28.293,14.462,83.377-13.059,83.377-13.059L263.125,161.889z"/>
				</g>
				<g>
					<g>
						<g>
							<path style="fill:#FFFDFD;stroke:#000000;stroke-miterlimit:10;" d="M278.028,159.562
								c-44.913-1.083-82.922,64.421-84.896,146.306c-0.124,5.131-0.103,10.205,0.056,15.209
								c8.367,13.585,27.274,27.589,69.43,29.313c57.992,2.371,82.616-16.315,92.697-30.077c0.218-3.476,0.375-6.983,0.46-10.524
								C357.75,227.904,322.941,160.645,278.028,159.562z"/>
							<ellipse style="fill:#F9B4CD;stroke:#000000;stroke-miterlimit:10;" cx="276.396" cy="169.245" rx="21.212" ry="13.457"/>
						</g>
						<g>
							<g>
								<g>
									<path d="M242.363,112.942c0,0-9-11.903-4.992-28.042s34.06-24.529,37.66-23.527c3.6,1.002,17.328,1.686,17.328,1.686
										s16.453-0.061,18.583,16.102s-5.087,35.081-5.623,37.663C304.784,119.406,252.548,130.894,242.363,112.942z"/>
									<g>
										<path style="fill:#FFFFFF;stroke:#000000;stroke-miterlimit:10;" d="M231.677,117.445
											c-0.145,4.773,3.637,8.76,8.449,8.907c4.812,0.147,8.831-3.604,8.976-8.376c0.145-4.773-3.637-8.76-8.449-8.907
											C235.841,108.922,231.822,112.672,231.677,117.445z"/>
										<g>
											<path d="M244.394,118.995c0.017-0.183,0.016-0.37,0.012-0.553c-0.005-0.2-0.019-0.399-0.041-0.597
												c-0.009-0.082,0.014-0.221,0-0.009c0.004-0.056-0.018-0.124-0.028-0.18c-0.022-0.132-0.048-0.263-0.079-0.394
												c-0.063-0.271-0.147-0.535-0.246-0.794c-0.068-0.176,0.056,0.114-0.025-0.059c-0.029-0.061-0.057-0.122-0.087-0.182
												c-0.074-0.147-0.156-0.29-0.246-0.428c-0.038-0.059-0.079-0.116-0.119-0.173c-0.108-0.154,0.071,0.076-0.052-0.066
												c-0.116-0.133-0.233-0.262-0.363-0.382c-0.056-0.051-0.115-0.098-0.172-0.148c-0.114-0.102,0.089,0.064,0.009,0.006
												c-0.032-0.023-0.063-0.046-0.095-0.068c-0.153-0.107-0.314-0.202-0.48-0.286c-0.038-0.019-0.076-0.037-0.114-0.056
												c-0.031-0.014-0.062-0.029-0.094-0.042c0.081,0.034,0.086,0.036,0.016,0.007c-0.102-0.036-0.203-0.076-0.306-0.109
												c-0.222-0.07-0.449-0.124-0.679-0.163c-0.016-0.003-0.218-0.034-0.068-0.013c-0.064-0.009-0.128-0.015-0.192-0.022
												c-0.134-0.013-0.268-0.022-0.403-0.027c-0.32-0.012-0.64-0.002-0.959,0.021c-0.363,0.027-0.673-0.328-0.673-0.673
												c0-0.386,0.309-0.646,0.673-0.673c1.902-0.139,3.842,0.338,5.038,1.912c0.736,0.969,1.059,2.198,1.124,3.399
												c0.014,0.249,0.02,0.503-0.004,0.752c-0.034,0.362-0.285,0.673-0.673,0.673
												C244.729,119.668,244.359,119.359,244.394,118.995L244.394,118.995z"/>
										</g>
									</g>
									<path style="fill:#FFFFFF;stroke:#000000;stroke-miterlimit:10;" d="M286.163,161.553c0.045,4.937-3.958,9.012-8.894,9.057
										l-3.824,0.035c-4.936,0.045-9.012-3.958-9.057-8.895l-0.167-18.469c-0.044-4.936,3.958-9.012,8.895-9.057l3.823-0.035
										c4.936-0.045,9.012,3.958,9.057,8.894L286.163,161.553z"/>
									<path style="fill:#FFFFFF;stroke:#000000;stroke-miterlimit:10;" d="M301.975,120.649
										c-0.132,13.031-10.901,23.584-23.931,23.453l-7.695-0.078c-13.031-0.132-23.584-10.901-23.453-23.931l0.258-25.561
										c0.132-13.031,10.901-23.584,23.931-23.453l7.695,0.078c13.031,0.132,23.584,10.901,23.453,23.931L301.975,120.649z"/>
									<path d="M306.906,76.667c-1.927-2.695-8.769-7.173-14.109-9.527c1.113-24.808-65.263-38.858-51.31-3.106
										c0,0-21.919-9.324-25.596,1.655c-8.943,26.707,54.87,35.09,72.923,11.392c3.792,1.414,8.455,4.143,9.377,9.158
										c1.602,8.709,3.849,27.965,3.849,27.965s1.073-4.646,2.88-8.535C306.728,101.78,309.689,80.559,306.906,76.667z"/>
									<g>
										<path style="fill:#FFFFFF;stroke:#000000;stroke-miterlimit:10;" d="M317.166,118.674
											c-0.145,4.773-4.164,8.523-8.976,8.376c-4.812-0.147-8.594-4.134-8.449-8.907c0.145-4.773,4.164-8.523,8.976-8.376
											C313.529,109.913,317.312,113.901,317.166,118.674z"/>
										<g>
											<path d="M303.034,119.406c-0.074-2.222,1.072-4.556,3.188-5.414c1.101-0.447,2.308-0.436,3.466-0.28
												c0.361,0.049,0.557,0.511,0.47,0.828c-0.107,0.389-0.466,0.519-0.828,0.47c-0.884-0.119-1.703-0.092-2.521,0.193
												c-0.044,0.015-0.289,0.117-0.142,0.051c-0.08,0.036-0.159,0.072-0.236,0.112c-0.163,0.084-0.317,0.182-0.469,0.286
												c-0.158,0.109,0.051-0.054-0.091,0.07c-0.059,0.051-0.118,0.102-0.175,0.156c-0.117,0.11-0.223,0.228-0.328,0.35
												c-0.024,0.028-0.047,0.058-0.07,0.087c0.104-0.128,0.045-0.061,0.025-0.03c-0.041,0.061-0.085,0.119-0.126,0.18
												c-0.087,0.132-0.167,0.268-0.24,0.408c-0.033,0.062-0.064,0.125-0.094,0.188c-0.022,0.046-0.112,0.265-0.032,0.066
												c-0.052,0.13-0.102,0.261-0.146,0.394c-0.079,0.239-0.143,0.484-0.193,0.731c-0.022,0.107-0.041,0.215-0.058,0.323
												c-0.012,0.076-0.077,0.217-0.001,0c-0.016,0.045-0.013,0.106-0.018,0.152c-0.024,0.225-0.042,0.454-0.034,0.68
												C304.409,120.272,303.062,120.271,303.034,119.406L303.034,119.406z"/>
										</g>
									</g>
								</g>
								<g>
									<polygon style="fill:#F76A59;" points="274.351,101.959 271.207,114.549 277.811,114.483 									"/>
									<g>
										<path style="fill:#FCD9E7;" d="M261.819,119.959c-0.329,3.819-3.69,6.647-7.509,6.319
											c-3.818-0.329-6.647-3.69-6.319-7.509c0.329-3.818,3.69-6.648,7.509-6.319
											C259.319,112.779,262.148,116.141,261.819,119.959z"/>
										<path style="fill:#FCD9E7;" d="M299.795,119.959c-0.329,3.819-3.69,6.647-7.509,6.319
											c-3.818-0.329-6.647-3.69-6.319-7.509c0.328-3.818,3.69-6.647,7.509-6.319
											C297.295,112.779,300.124,116.141,299.795,119.959z"/>
									</g>
									<path style="fill:#FFFDFC;stroke:#000000;stroke-miterlimit:10;" d="M270.014,123.934c0.313,2.701,2.569,4.819,5.359,4.847
										c2.79,0.028,5.089-2.043,5.456-4.738L270.014,123.934z"/>
									<g>
										<path style="fill:#040404;" d="M259.909,106.884c-0.074,1.76-1.562,3.127-3.322,3.053
											c-1.76-0.074-3.127-1.562-3.053-3.322c0.074-1.76,1.562-3.127,3.322-3.053
											C258.616,103.636,259.983,105.123,259.909,106.884z"/>
										<path style="fill:#040404;" d="M293.677,106.884c-0.074,1.76-1.562,3.127-3.322,3.053
											c-1.76-0.074-3.127-1.562-3.053-3.322c0.074-1.76,1.562-3.127,3.322-3.053
											C292.384,103.636,293.751,105.123,293.677,106.884z"/>
									</g>
								</g>
							</g>
						</g>
					</g>
				</g>
			</g>
			<g>
				<g>
					<path style="fill:#FFFFFF;stroke:#020106;stroke-miterlimit:10;" d="M501.587,503.563
						c17.036-29.603,19.179-70.641,19.179-115.146c0-90.807-43.662-164.42-97.521-164.42c-53.859,0-97.521,73.613-97.521,164.42
						c0,44,10.251,83.962,26.946,113.47L501.587,503.563z"/>
					<path style="fill:#FCE207;stroke:#020106;stroke-miterlimit:10;" d="M397.954,229.592v272.619l49.054,0.351V228.923
						c-7.607-3.212-15.566-4.926-23.763-4.926C414.497,223.997,406.02,225.95,397.954,229.592z"/>
				</g>
				<g>
					<path style="stroke:#020106;stroke-miterlimit:10;" d="M399.128,216.446c0,0-10.276,2.291-6.168,20.616
						s23.706,21.634,38.213,19.598s25.56-22.652,16.089-37.668C437.791,203.975,399.128,216.446,399.128,216.446z"/>
					<path style="stroke:#020106;stroke-miterlimit:10;" d="M407.484,225.1c0,0-24.413-8.802-26.704-30.107
						c-2.291-21.305,5.282-68.839,40.513-68.143c38.686,0.763,40.168,52.232,39.914,65.795
						c-0.255,13.563-10.181,25.837-17.562,30.164C436.264,227.136,411.423,226.852,407.484,225.1z"/>
					<g>
						<g>
							<g>
								<path style="fill:#FFFFFF;stroke:#020106;stroke-miterlimit:10;" d="M448.355,191.027
									c-0.772,13.434-12.396,23.793-25.83,23.021l-8.042-0.462c-13.434-0.772-23.793-12.396-23.021-25.83l1.291-22.46
									c0.772-13.434,12.396-23.793,25.83-23.021l8.042,0.463c13.434,0.772,23.794,12.396,23.021,25.83L448.355,191.027z"/>
								<g>
									<polygon style="fill:#F76A59;" points="421.081,167.191 417.437,180.27 424.347,180.389 									"/>
									<g>
										<path style="fill:#0C0C0C;" d="M405.797,172.411c-0.128,1.839-1.722,3.227-3.561,3.1c-1.839-0.127-3.227-1.722-3.1-3.561
											c0.127-1.839,1.722-3.227,3.561-3.1C404.537,168.977,405.924,170.572,405.797,172.411z"/>
										<path style="fill:#0C0C0C;" d="M441.197,172.411c-0.128,1.839-1.722,3.227-3.561,3.1c-1.839-0.127-3.227-1.722-3.1-3.561
											c0.127-1.839,1.722-3.227,3.561-3.099C439.936,168.978,441.324,170.572,441.197,172.411z"/>
									</g>
									<g>
										<path style="fill:#FCD9E7;" d="M407.437,186.201c-0.452,3.985-4.048,6.849-8.032,6.397
											c-3.984-0.452-6.849-4.048-6.397-8.033c0.452-3.985,4.048-6.849,8.032-6.397
											C405.024,178.62,407.889,182.216,407.437,186.201z"/>
										<path style="fill:#FCD9E7;" d="M447.215,186.201c-0.452,3.985-4.048,6.849-8.033,6.397
											c-3.985-0.452-6.849-4.048-6.397-8.033c0.451-3.984,4.048-6.848,8.032-6.397
											C444.803,178.62,447.667,182.216,447.215,186.201z"/>
									</g>
									<path style="fill:#FFFFFF;stroke:#0C0C0C;stroke-miterlimit:10;" d="M420.892,198.419c3.784,0,6.852-3.067,6.852-6.852
										H414.04C414.04,195.351,417.108,198.419,420.892,198.419z"/>
								</g>
							</g>
							<path style="fill:#762AE2;stroke:#020106;stroke-miterlimit:10;" d="M449.085,161.821
								c-2.342-10.375-11.345-18.445-22.46-19.084l-8.042-0.462c-11.804-0.679-22.208,7.239-25.083,18.283L449.085,161.821z"/>
						</g>
					</g>
					<path style="fill:none;stroke:#FFFDFD;stroke-miterlimit:10;" d="M399.716,221.238c0,0,13.637,10.977,42.654,2.202"/>
					<g>
						<polygon style="stroke:#020106;stroke-miterlimit:10;" points="476.732,307.562 441.82,307.562 449.686,171.861 
							459.583,169.822 						"/>
						<polyline style="fill:none;stroke:#FFFDFD;stroke-miterlimit:10;" points="447.008,194.993 441.82,307.562 476.732,307.562 
													"/>
					</g>
				</g>
			</g>
			<g>
				<path style="fill:#762AE2;stroke:#000000;stroke-width:0.909;stroke-miterlimit:10;" d="M164.364,506.275
					c25.213-29.851,41.275-74.939,41.275-125.391c0-89.881-50.974-162.744-113.854-162.744S-22.07,291.003-22.07,380.884
					c0,50.452-3.143,93.806,22.07,123.657L164.364,506.275z"/>
				<g>
					<path style="fill:#762AE2;stroke:#000000;stroke-width:0.9716;stroke-miterlimit:10;" d="M35.315,217.414
						c-0.915,17.775,20.625,33.331,48.112,34.746c27.486,1.415,50.511-11.847,51.426-29.622
						c0.915-17.775-20.625-33.331-48.112-34.746C59.254,186.377,36.229,199.639,35.315,217.414z"/>
					<g>
						<g>
							<path style="fill:none;stroke:#000000;stroke-width:1.8801;stroke-miterlimit:10;" d="M56.339,172.309
								c0.362,7.139,6.491,12.631,13.689,12.266c7.198-0.365,12.739-6.449,12.376-13.588c-0.362-7.139-6.491-12.63-13.688-12.265
								C61.518,159.086,55.977,165.17,56.339,172.309z"/>
							<path style="fill:#FFFFFF;stroke:#000000;stroke-width:0.94;stroke-miterlimit:10;" d="M111.082,129.316l-16.37,0.831
								c-10.883,0.552-19.273,11.142-18.644,23.533l1.288,25.375c0.036,0.715,0.109,1.419,0.202,2.115
								c-0.138,0.757-0.202,1.538-0.162,2.339l0.784,15.447l0.044,0.861l0.784,15.447c0.285,5.606,5.104,9.959,10.709,9.674
								l6.494-0.329c5.605-0.285,9.959-5.103,9.674-10.709l-0.694-13.67l9.466-0.48c10.883-0.552,19.273-11.142,18.644-23.533
								l-1.288-25.375C131.384,138.45,121.965,128.764,111.082,129.316z"/>
							<g>
								<g>
									<path style="fill:#0C0C0C;" d="M99.676,160.794c0.103,2.038,1.839,3.606,3.877,3.503c2.038-0.103,3.606-1.839,3.503-3.877
										c-0.103-2.038-1.839-3.606-3.877-3.503C101.14,157.02,99.572,158.756,99.676,160.794z"/>
									<path style="fill:#0C0C0C;" d="M123.806,159.028c0.088,1.74,1.57,3.079,3.309,2.99c1.74-0.088,3.078-1.57,2.99-3.31
										c-0.088-1.739-1.57-3.078-3.31-2.99C125.057,155.807,123.718,157.288,123.806,159.028z"/>
								</g>
								<g>
									<path style="fill:#FFFDFD;" d="M121.049,174.304c0,0-1.58,5.498-5.482,6.067c-3.902,0.57-7.194-3.618-7.579-6.998
										L121.049,174.304z"/>
									<g>
										<path style="fill:#0C0C0C;" d="M120.543,174.165c-0.444,1.528-1.273,3.074-2.383,4.214
											c-0.907,0.932-2.059,1.538-3.382,1.519c-1.56-0.021-2.96-0.878-4.01-1.98c-1.165-1.223-2.042-2.856-2.256-4.545
											c-0.175,0.175-0.35,0.35-0.525,0.525c3.806,0.271,7.611,0.542,11.417,0.814c0.548,0.039,1.096,0.078,1.644,0.117
											c0.674,0.048,0.671-1.002,0-1.049c-3.806-0.271-7.611-0.542-11.417-0.814c-0.548-0.039-1.096-0.078-1.644-0.117
											c-0.258-0.018-0.558,0.257-0.525,0.525c0.41,3.245,2.828,6.702,6.158,7.437c3.149,0.695,5.595-1.464,6.976-4.078
											c0.383-0.725,0.728-1.498,0.958-2.288C121.744,173.794,120.731,173.516,120.543,174.165z"/>
									</g>
								</g>
								<g>
									<path style="fill:#FCD9E7;" d="M87.539,175.014c0.257,5.066,4.572,8.964,9.637,8.706c5.066-0.257,8.964-4.572,8.706-9.637
										c-0.257-5.066-4.572-8.964-9.637-8.706C91.18,165.634,87.282,169.949,87.539,175.014z"/>
									<path style="fill:#FCD9E7;" d="M130.348,166.61c0.559-0.028,1.102,0.017,1.629,0.114l0.483,9.513
										c0.072,1.421,0.089,2.799-0.131,4.152c-0.38,0.085-0.871,0.162-1.272,0.183c-3.855,0.196-7.14-2.771-7.335-6.627
										C123.525,170.09,126.492,166.806,130.348,166.61z"/>
								</g>
								<polygon style="fill:#F76A59;" points="115.977,156.268 115.86,168.871 121.674,164.911 								"/>
							</g>
							<path d="M81.228,170.629l2.013-20.029c0,0,55.34,4.102,71.811-23.514c16.471-27.617-2.799-37.241-11.786-35.27
								c-8.988,1.971-18.927,15.501-18.927,15.501s7.854-11.91-0.675-13.294c-8.529-1.385-17.404,7.85-21.802,17.161
								c0,0-36.419-1.54-47.559,21.015c-11.141,22.556-0.42,37.612,23.142,59.136l0.854-12.751L81.228,170.629z"/>
							<g>
								<path style="fill:#FFFFFF;" d="M56.339,172.309c0.362,7.139,6.491,12.631,13.689,12.266
									c7.198-0.365,12.739-6.449,12.376-13.588c-0.362-7.139-6.491-12.63-13.688-12.265
									C61.518,159.086,55.977,165.17,56.339,172.309z"/>
								<g>
									<g>
										<path style="fill:#020202;" d="M77.155,172.997c0.041-3.145-1.603-6.479-4.624-7.664c-1.6-0.628-3.361-0.596-5.034-0.336
											c-0.348,0.054-0.533,0.486-0.452,0.796c0.097,0.37,0.452,0.505,0.796,0.452c2.322-0.361,4.767-0.027,6.329,1.78
											c0.476,0.55,0.926,1.4,1.158,2.057c0.125,0.354,0.228,0.716,0.311,1.082c0.037,0.163,0.07,0.326,0.098,0.491
											c0.013,0.076,0.025,0.152,0.037,0.228c0.005,0.029,0.008,0.058,0.013,0.087c0.022,0.143-0.016-0.133,0-0.004
											c0.042,0.341,0.078,0.688,0.074,1.032C75.85,173.83,77.144,173.831,77.155,172.997L77.155,172.997z"/>
									</g>
								</g>
							</g>
							
								<ellipse transform="matrix(0.7071 -0.7071 0.7071 0.7071 -72.9183 49.5235)" cx="23.321" cy="112.782" rx="34.463" ry="34.463"/>
						</g>
					</g>
					<g>
						<path style="fill:#762AE2;" d="M116.668,203.74l7.018,21.623l-44.008,16.436l-2.774-9.038l-17.019-8.98l5.9-18.85
							l20.336,14.218l1.345,1c0,0,0.775,1.175,4.298-1.003C95.285,216.967,116.668,203.74,116.668,203.74z"/>
						<g>
							<polyline style="fill:none;stroke:#000000;stroke-width:0.94;stroke-miterlimit:10;" points="118.342,202.705 
								76.885,228.348 76.908,233.934 							"/>
							
								<line style="fill:none;stroke:#000000;stroke-width:0.94;stroke-miterlimit:10;" x1="64.723" y1="204.935" x2="88.848" y2="220.948"/>
						</g>
					</g>
					<g>
						<g>
							<path style="fill:none;stroke:#000000;stroke-width:0.94;stroke-miterlimit:10;" d="M98.524,240.573
								c-0.316,1.892,0.962,3.682,2.854,3.998c1.892,0.316,3.682-0.962,3.998-2.854c0.316-1.892-0.962-3.682-2.854-3.998
								C100.63,237.402,98.84,238.68,98.524,240.573z"/>
							<path style="fill:none;stroke:#000000;stroke-width:0.94;stroke-miterlimit:10;" d="M101.951,241.145
								c0,0,9.061,39.084,20.023,53.811"/>
						</g>
					</g>
					<g>
						<g>
							<path style="fill:none;stroke:#000000;stroke-width:0.94;stroke-miterlimit:10;" d="M68.023,238.918
								c0.316,1.892-0.962,3.682-2.854,3.998c-1.892,0.316-3.682-0.962-3.998-2.854c-0.316-1.892,0.962-3.682,2.854-3.998
								C65.917,235.748,67.707,237.026,68.023,238.918z"/>
							<path style="fill:none;stroke:#000000;stroke-width:0.94;stroke-miterlimit:10;" d="M64.597,239.49
								c0,0-9.061,39.084-20.023,53.811"/>
						</g>
					</g>
				</g>
			</g>
			<g>
				<g>
					<g>
						<path style="fill:#FFFFFF;stroke:#020106;stroke-miterlimit:10;" d="M134.333,436.984c0,0,20.561-118.055,107.097-140.14
							c86.536-22.085,128.884,89.334,141.889,142.348l7.122,43.578l-260.847-8.885L134.333,436.984z"/>
						<path style="fill:none;stroke:#020106;stroke-miterlimit:10;" d="M205.024,313.771l62.246,108.414l57.65-100.121
							c-4.902-4.934-10.123-9.391-15.676-13.228l-42.76,84.368c0,0-39.761-74.592-46.85-88.207
							C214.478,307.584,209.611,310.529,205.024,313.771z"/>
						<g>
							<path style="fill:#FF739E;" d="M279.564,353.684c0,1.254-1.017,2.271-2.271,2.271c-1.254,0-2.271-1.017-2.271-2.271
								s1.017-2.271,2.271-2.271C278.547,351.413,279.564,352.43,279.564,353.684z"/>
							<path style="fill:#FF739E;" d="M255.979,359.951c0,1.438-1.166,2.604-2.604,2.604c-1.439,0-2.605-1.166-2.605-2.604
								c0-1.439,1.166-2.605,2.605-2.605C254.813,357.347,255.979,358.513,255.979,359.951z"/>
							<path style="fill:#FF739E;" d="M259.249,340.767c0,1.622-1.315,2.938-2.938,2.938c-1.622,0-2.938-1.315-2.938-2.938
								c0-1.622,1.315-2.938,2.938-2.938C257.934,337.83,259.249,339.145,259.249,340.767z"/>
							<path style="fill:#FF739E;" d="M244.185,337.061c0,1.262-1.023,2.286-2.286,2.286s-2.286-1.023-2.286-2.286
								c0-1.262,1.023-2.286,2.286-2.286S244.185,335.799,244.185,337.061z"/>
							<path style="fill:#FF739E;" d="M277.308,339.347c0,1.262-1.023,2.286-2.286,2.286c-1.262,0-2.286-1.023-2.286-2.286
								s1.023-2.286,2.286-2.286C276.285,337.061,277.308,338.085,277.308,339.347z"/>
							<circle style="fill:#FF739E;" cx="271.855" cy="370.094" r="1.639"/>
							<path style="fill:#FF739E;" d="M295.075,323.54c-0.935,0.935-2.451,0.935-3.387,0c-0.935-0.935-0.935-2.451,0-3.387
								c0.935-0.935,2.451-0.935,3.387,0C296.01,321.088,296.01,322.604,295.075,323.54z"/>
							<path style="fill:#FF739E;" d="M293.248,334.776c0,0.898-0.728,1.627-1.627,1.627c-0.898,0-1.627-0.728-1.627-1.627
								c0-0.898,0.728-1.627,1.627-1.627C292.52,333.149,293.248,333.877,293.248,334.776z"/>
							<path style="fill:#FF739E;" d="M304.439,312.84c0,1.337-1.084,2.421-2.421,2.421c-1.337,0-2.421-1.084-2.421-2.421
								c0-1.337,1.084-2.421,2.421-2.421C303.355,310.419,304.439,311.503,304.439,312.84z"/>
							<path style="fill:#FF739E;" d="M295.392,304.686c0,1.184-0.96,2.144-2.144,2.144s-2.144-0.96-2.144-2.144
								c0-1.184,0.96-2.144,2.144-2.144S295.392,303.502,295.392,304.686z"/>
							<circle style="fill:#FF739E;" cx="226.733" cy="309.056" r="1.892"/>
							<circle style="fill:#FF739E;" cx="235.204" cy="304.694" r="1.818"/>
							<path style="fill:#FF739E;" d="M237.434,320.199c0,1.118-0.906,2.024-2.024,2.024c-1.118,0-2.024-0.906-2.024-2.024
								c0-1.118,0.906-2.024,2.024-2.024C236.528,318.175,237.434,319.081,237.434,320.199z"/>
						</g>
					</g>
					<g>
						<line style="fill:none;stroke:#020106;stroke-miterlimit:10;" x1="266.749" y1="324.713" x2="266.484" y2="393.205"/>
						<g>
							<circle style="fill:#020106;" cx="262.618" cy="333.518" r="1.83"/>
							<circle style="fill:#020106;" cx="262.404" cy="353.243" r="1.83"/>
							<circle style="fill:#020106;" cx="262.036" cy="372.969" r="1.83"/>
						</g>
						<path style="fill:#FFFFFF;stroke:#020106;stroke-miterlimit:10;" d="M275.833,295.049c-4.966,0-9.299,3.474-11.684,8.649
							c-2.385-5.175-6.718-8.649-11.684-8.649c-7.532,0-13.638,7.965-13.638,17.791c0,9.826,6.106,17.791,13.638,17.791
							c4.966,0,9.299-3.474,11.684-8.649c2.385,5.175,6.718,8.649,11.684,8.649c7.532,0,13.638-7.965,13.638-17.791
							C289.471,303.014,283.365,295.049,275.833,295.049z"/>
					</g>
				</g>
				<g>
					<g>
						<path style="fill:#FF739E;" d="M246.635,271.507c0,0-18.537-2.403-23.071-35.332c-4.535-32.929,12.678-44.674,32.416-47.138
							c0,0,11.778-2.288,21.572,3.04c0,0,9.245-3.354,22.616,6.571c15.564,11.553,10.571,60.949-12.78,72.86
							C264.037,283.418,252.983,276.411,246.635,271.507z"/>
						<g>
							<path style="fill:#FF739E;" d="M224.856,204.846c0.422,3.256-1.875,6.238-5.131,6.66c-3.256,0.422-6.238-1.875-6.66-5.131
								c-0.422-3.256,1.875-6.238,5.132-6.66C221.452,199.292,224.434,201.59,224.856,204.846z"/>
							
								<ellipse transform="matrix(0.9917 -0.1285 0.1285 0.9917 -20.4465 26.089)" style="fill:#FF739E;" cx="191.9" cy="171.452" rx="31.861" ry="29.83"/>
						</g>
					</g>
					<g>
						<g>
							<g>
								<path style="fill:#FFFEFD;stroke:#020106;stroke-miterlimit:10;" d="M275.539,301.831c-0.115,4.91-4.227,8.833-9.137,8.718
									l-3.803-0.089c-4.91-0.115-8.833-4.227-8.718-9.137l0.431-18.369c0.115-4.91,4.227-8.833,9.137-8.718l3.803,0.089
									c4.91,0.115,8.833,4.227,8.718,9.137L275.539,301.831z"/>
								<g>
									<g>
										<path style="fill:#FFFEFD;stroke:#020106;stroke-miterlimit:10;" d="M308.824,252.769
											c-0.273,4.743-4.37,8.364-9.151,8.089c-4.781-0.275-8.436-4.342-8.163-9.085c0.273-4.742,4.37-8.364,9.151-8.089
											C305.442,243.959,309.097,248.026,308.824,252.769z"/>
										<g>
											<g>
												<path style="fill:#020202;" d="M295.897,253.136c-0.001-0.178,0.015-0.358,0.035-0.535
													c0.005-0.043,0.01-0.086,0.016-0.129c-0.021,0.168,0.002-0.007,0.007-0.041c0.018-0.109,0.037-0.218,0.059-0.326
													c0.049-0.237,0.11-0.471,0.184-0.701c0.338-1.042,1.051-2.036,2.125-2.462c0.911-0.361,1.918-0.362,2.875-0.207
													c0.254,0.041,0.514-0.066,0.588-0.334c0.063-0.228-0.077-0.546-0.334-0.588c-1.784-0.289-3.722-0.095-5.017,1.296
													c-0.803,0.863-1.25,2.011-1.417,3.167c-0.041,0.283-0.079,0.573-0.077,0.86
													C294.945,253.751,295.901,253.752,295.897,253.136L295.897,253.136z"/>
											</g>
										</g>
									</g>
									<g>
										<path style="fill:#FFFEFD;stroke:#020106;stroke-miterlimit:10;" d="M223.577,254.282
											c-0.273,4.743,3.382,8.81,8.164,9.085c4.781,0.275,8.878-3.347,9.151-8.089c0.273-4.743-3.382-8.81-8.164-9.085
											C227.947,245.918,223.85,249.54,223.577,254.282z"/>
										<g>
											<g>
												<path style="fill:#020202;" d="M237.33,256.183c0.248-2.038-0.607-4.385-2.486-5.368
													c-1.012-0.53-2.174-0.669-3.302-0.617c-0.613,0.028-0.616,0.984,0,0.956c0.881-0.041,1.875,0.041,2.635,0.395
													c0.153,0.071,0.301,0.15,0.445,0.239c0.068,0.042,0.135,0.088,0.201,0.134c0.085,0.059,0.075,0.052,0.179,0.141
													c0.119,0.103,0.232,0.213,0.338,0.329c0.14,0.154,0.146,0.164,0.248,0.31c0.084,0.121,0.16,0.246,0.231,0.375
													c0.036,0.066,0.071,0.133,0.103,0.201c0.019,0.039,0.105,0.237,0.067,0.144c0.105,0.257,0.189,0.522,0.253,0.792
													c0.029,0.123,0.055,0.247,0.077,0.372c0.01,0.057,0.018,0.114,0.027,0.171c0.019,0.117-0.013-0.11,0.001,0.006
													c0.004,0.033,0.008,0.065,0.011,0.098c0.024,0.212,0.037,0.426,0.041,0.639c0.004,0.226,0.002,0.456-0.025,0.681
													c-0.031,0.257,0.242,0.478,0.478,0.478C237.136,256.661,237.299,256.441,237.33,256.183L237.33,256.183z"/>
											</g>
										</g>
									</g>
								</g>
								<path style="fill:#FFFFFF;stroke:#020106;stroke-miterlimit:10;" d="M292.398,261.749
									c-0.734,12.773-11.786,22.622-24.559,21.888l-7.647-0.44c-12.773-0.734-22.622-11.786-21.888-24.559l1.228-21.354
									c0.734-12.773,11.786-22.622,24.559-21.888l7.646,0.44c12.773,0.734,22.622,11.786,21.888,24.559L292.398,261.749z"/>
								<g>
									<polygon style="fill:#F76A59;" points="266.467,239.086 263.002,251.521 269.572,251.634 									"/>
									<g>
										<path style="fill:#0C0C0C;" d="M251.935,244.049c-0.121,1.749-1.637,3.068-3.386,2.947
											c-1.749-0.121-3.068-1.637-2.947-3.386c0.121-1.749,1.637-3.068,3.386-2.947
											C250.737,240.784,252.056,242.3,251.935,244.049z"/>
										<path style="fill:#0C0C0C;" d="M285.592,244.049c-0.121,1.749-1.637,3.068-3.386,2.947
											c-1.749-0.121-3.069-1.637-2.947-3.386c0.121-1.749,1.637-3.068,3.386-2.947
											C284.394,240.784,285.713,242.3,285.592,244.049z"/>
									</g>
									<g>
										<path style="fill:#FCD9E7;" d="M253.494,257.16c-0.429,3.789-3.849,6.512-7.637,6.083
											c-3.788-0.43-6.512-3.849-6.082-7.637c0.43-3.789,3.849-6.512,7.637-6.082C251.2,249.952,253.924,253.371,253.494,257.16z
											"/>
										<path style="fill:#FCD9E7;" d="M291.315,257.16c-0.43,3.789-3.849,6.512-7.637,6.082
											c-3.789-0.429-6.512-3.848-6.082-7.637c0.429-3.788,3.848-6.511,7.637-6.082
											C289.021,249.952,291.744,253.371,291.315,257.16z"/>
									</g>
									<g>
										<g>
											<path style="fill:#0C0C0C;" d="M262.46,262.673c0.544,1.282,2.064,2.131,3.304,2.549
												c2.326,0.784,5.092,0.662,6.862-1.212c0.495-0.524,0.99-1.212,1.144-1.932c0.14-0.655-0.867-0.936-1.007-0.278
												c-0.129,0.605-0.609,1.241-1.109,1.703c-0.973,0.9-2.284,1.217-3.583,1.125c-1.643-0.116-4.009-0.832-4.71-2.482
												C263.099,261.529,262.2,262.06,262.46,262.673L262.46,262.673z"/>
										</g>
									</g>
								</g>
							</g>
						</g>
					</g>
					<path style="fill:#FF739E;" d="M226.479,228.515c0,0,7.959,14.745,19.116,8.493c0,0,9.281-3.751,11.781-11.879
						c0,0,9.373,4.264,16.626-1.783c1.326-1.106,3.549-4.678,3.549-4.678s1.5,20.841,18.798,23.759
						c17.298,2.918,12.453-23.342,4.976-33.554c-7.477-10.212-28.505-21.267-43.584-16.777
						C241.554,196.915,221.269,203.714,226.479,228.515z"/>
				</g>
			</g>
			<g>
				<g>
					<path style="fill:#FFFDFD;stroke:#020106;stroke-miterlimit:10;" d="M493.714,508.776
						c-8.017-81.171-56.624-143.601-115.399-143.601c-58.776,0-107.383,62.43-115.399,143.601H493.714z"/>
					<g>
						<path style="fill:#F9B4CD;stroke:#020106;stroke-miterlimit:10;" d="M397.633,358.497c-6.774-2.347-13.465-2.093-17.741,0.226
							c-4.275-2.319-10.966-2.573-17.741-0.226c-9.991,3.461-16.364,11.252-14.234,17.403c2.13,6.15,11.957,8.331,21.948,4.87
							c4.051-1.403,7.49-3.523,10.026-5.952c2.536,2.429,5.975,4.549,10.026,5.952c9.991,3.461,19.818,1.28,21.948-4.87
							C413.997,369.749,407.624,361.958,397.633,358.497z"/>
						<g>
							<g>
								<path style="fill:#020106;" d="M440.791,345.003c0-47.596-27.08-86.18-60.485-86.18s-60.485,38.584-60.485,86.18
									c0,2.241,0.079,4.454,0.197,6.652h120.575C440.712,349.457,440.791,347.244,440.791,345.003z"/>
							</g>
							<g>
								<g>
									<path style="fill:#FFFEFD;stroke:#020106;stroke-miterlimit:10;" d="M390.991,361.784
										c-0.116,4.965-4.274,8.931-9.238,8.814l-3.845-0.09c-4.964-0.116-8.931-4.273-8.815-9.238l0.436-18.573
										c0.116-4.965,4.273-8.931,9.238-8.815l3.845,0.09c4.964,0.116,8.931,4.273,8.814,9.238L390.991,361.784z"/>
									<g>
										<g>
											<path style="fill:#FFFEFD;stroke:#020106;stroke-miterlimit:10;" d="M424.645,312.177
												c-0.276,4.795-4.418,8.457-9.253,8.179c-4.834-0.278-8.53-4.391-8.254-9.186c0.276-4.795,4.418-8.457,9.252-8.179
												C421.225,303.27,424.921,307.382,424.645,312.177z"/>
											<g>
												<g>
													<path style="fill:#020202;" d="M411.569,312.548c-0.001-0.181,0.016-0.362,0.036-0.541
														c0.005-0.043,0.01-0.087,0.016-0.13c-0.021,0.167,0.002-0.009,0.007-0.043c0.018-0.11,0.037-0.22,0.06-0.33
														c0.049-0.24,0.111-0.477,0.186-0.709c0.342-1.056,1.063-2.061,2.152-2.493c0.921-0.365,1.943-0.366,2.909-0.209
														c0.255,0.041,0.514-0.066,0.588-0.334c0.063-0.228-0.077-0.547-0.334-0.588c-1.802-0.292-3.76-0.096-5.068,1.309
														c-0.812,0.872-1.263,2.032-1.431,3.2c-0.041,0.286-0.08,0.578-0.078,0.868
														C410.617,313.163,411.573,313.165,411.569,312.548L411.569,312.548z"/>
												</g>
											</g>
										</g>
										<g>
											<path style="fill:#FFFEFD;stroke:#020106;stroke-miterlimit:10;" d="M338.452,313.707
												c-0.276,4.795,3.42,8.908,8.254,9.186c4.835,0.278,8.977-3.384,9.253-8.179c0.276-4.795-3.42-8.908-8.254-9.186
												C342.871,305.25,338.728,308.912,338.452,313.707z"/>
											<g>
												<g>
													<path style="fill:#020202;" d="M352.352,315.63c0.251-2.059-0.612-4.43-2.511-5.423
														c-1.023-0.535-2.196-0.676-3.336-0.623c-0.613,0.028-0.616,0.984,0,0.956c0.892-0.041,1.893,0.04,2.667,0.4
														c0.154,0.072,0.305,0.152,0.45,0.242c0.069,0.043,0.136,0.089,0.203,0.135c0.085,0.059,0.079,0.055,0.182,0.144
														c0.121,0.104,0.235,0.215,0.342,0.333c0.14,0.154,0.15,0.168,0.251,0.315c0.084,0.122,0.162,0.249,0.233,0.379
														c0.036,0.067,0.071,0.135,0.105,0.203c0.019,0.039,0.105,0.237,0.068,0.147c0.107,0.259,0.191,0.528,0.256,0.8
														c0.03,0.125,0.056,0.25,0.078,0.376c0.01,0.057,0.019,0.115,0.028,0.173c0.019,0.118-0.013-0.109,0.001,0.008
														c0.004,0.033,0.008,0.066,0.012,0.099c0.024,0.215,0.038,0.43,0.042,0.646c0.004,0.229,0.002,0.461-0.026,0.689
														c-0.031,0.257,0.242,0.478,0.478,0.478C352.159,316.108,352.321,315.887,352.352,315.63L352.352,315.63z"/>
												</g>
											</g>
										</g>
									</g>
									<path style="fill:#FFFFFF;stroke:#020106;stroke-miterlimit:10;" d="M408.037,321.257
										c-0.743,12.915-11.917,22.874-24.831,22.131l-7.731-0.445c-12.914-0.743-22.873-11.917-22.131-24.831l1.241-21.591
										c0.743-12.914,11.917-22.873,24.831-22.131l7.731,0.445c12.915,0.743,22.874,11.917,22.131,24.831L408.037,321.257z"/>
									<g>
										<polygon style="fill:#F76A59;" points="381.818,298.342 378.315,310.916 384.957,311.03 										"/>
										<g>
											<path style="fill:#0C0C0C;" d="M367.125,303.361c-0.122,1.768-1.655,3.102-3.423,2.98
												c-1.768-0.122-3.102-1.655-2.98-3.423c0.122-1.768,1.655-3.102,3.423-2.98
												C365.913,300.06,367.247,301.593,367.125,303.361z"/>
											<path style="fill:#0C0C0C;" d="M401.155,303.361c-0.123,1.768-1.655,3.102-3.423,2.98
												c-1.768-0.122-3.102-1.655-2.98-3.423c0.122-1.768,1.655-3.102,3.423-2.98S401.278,301.592,401.155,303.361z"/>
										</g>
										<g>
											<path style="fill:#FCD9E7;" d="M368.701,316.617c-0.434,3.831-3.891,6.584-7.722,6.15
												c-3.83-0.434-6.584-3.891-6.15-7.722c0.434-3.831,3.891-6.584,7.722-6.15
												C366.382,309.329,369.135,312.786,368.701,316.617z"/>
											<path style="fill:#FCD9E7;" d="M406.942,316.617c-0.434,3.831-3.891,6.584-7.722,6.15
												c-3.831-0.434-6.584-3.891-6.15-7.722c0.434-3.83,3.891-6.584,7.722-6.15
												C404.622,309.329,407.376,312.786,406.942,316.617z"/>
										</g>
										<g>
											<g>
												<path style="fill:#0C0C0C;" d="M377.771,322.188c0.55,1.295,2.085,2.152,3.338,2.574c2.35,0.792,5.144,0.67,6.933-1.224
													c0.5-0.529,1-1.224,1.155-1.951c0.14-0.655-0.867-0.936-1.007-0.278c-0.132,0.616-0.618,1.258-1.122,1.724
													c-0.985,0.911-2.312,1.232-3.627,1.139c-1.661-0.117-4.056-0.839-4.767-2.512
													C378.411,321.044,377.511,321.576,377.771,322.188L377.771,322.188z"/>
											</g>
										</g>
									</g>
								</g>
								<path style="fill:#020106;" d="M346.505,295.456l70.557,1.604c0,0-1.269-27.824-25.634-30.453
									C363.923,263.639,357.949,270.33,346.505,295.456z"/>
							</g>
						</g>
					</g>
					<g>
						<path style="fill:#020106;" d="M353.615,401.286c1.897-0.975,4.225-0.228,5.2,1.669c0.975,1.897,0.228,4.225-1.669,5.2
							c-1.897,0.975-4.225,0.228-5.2-1.67C350.971,404.59,351.718,402.261,353.615,401.286z"/>
						<path style="fill:#020106;" d="M309.407,406.89c1.897-0.975,4.225-0.228,5.2,1.669c0.975,1.897,0.227,4.225-1.67,5.2
							c-1.897,0.975-4.225,0.228-5.2-1.669C306.763,410.193,307.51,407.865,309.407,406.89z"/>
						<path style="fill:#020106;" d="M306.301,441.759c1.897-0.975,4.225-0.228,5.2,1.67c0.975,1.897,0.228,4.225-1.67,5.2
							c-1.897,0.975-4.225,0.228-5.2-1.669C303.656,445.063,304.404,442.734,306.301,441.759z"/>
						<path style="fill:#020106;" d="M278.137,471.479c1.897-0.975,4.225-0.228,5.2,1.669c0.975,1.897,0.228,4.225-1.669,5.2
							s-4.225,0.228-5.2-1.669C275.493,474.783,276.24,472.454,278.137,471.479z"/>
						<path style="fill:#020106;" d="M336.022,381.244c1.897-0.975,4.225-0.228,5.2,1.669c0.975,1.897,0.228,4.225-1.669,5.2
							c-1.897,0.975-4.225,0.228-5.2-1.669C333.378,384.548,334.125,382.219,336.022,381.244z"/>
						<path style="fill:#020106;" d="M380.141,384.941c1.897-0.975,4.225-0.228,5.2,1.67c0.975,1.897,0.227,4.225-1.67,5.2
							c-1.897,0.975-4.225,0.228-5.2-1.67C377.497,388.245,378.244,385.917,380.141,384.941z"/>
						<path style="fill:#020106;" d="M378.723,422.458c1.897-0.975,4.225-0.228,5.2,1.669c0.975,1.897,0.228,4.225-1.669,5.2
							c-1.897,0.975-4.225,0.228-5.2-1.669S376.825,423.433,378.723,422.458z"/>
						<path style="fill:#020106;" d="M334.727,447.705c1.897-0.975,4.225-0.228,5.2,1.669c0.975,1.897,0.228,4.225-1.67,5.2
							c-1.897,0.975-4.225,0.228-5.2-1.669C332.083,451.009,332.83,448.68,334.727,447.705z"/>
						<path style="fill:#020106;" d="M364.132,469.711c1.897-0.975,4.225-0.228,5.2,1.67c0.975,1.897,0.227,4.225-1.67,5.2
							c-1.897,0.975-4.225,0.228-5.2-1.669C361.488,473.014,362.235,470.686,364.132,469.711z"/>
						<path style="fill:#020106;" d="M321.882,487.083c1.897-0.975,4.225-0.228,5.2,1.669c0.975,1.897,0.228,4.225-1.67,5.2
							c-1.897,0.975-4.225,0.228-5.2-1.669S319.985,488.059,321.882,487.083z"/>
						<path style="fill:#020106;" d="M393.369,487.083c1.897-0.975,4.225-0.228,5.2,1.669c0.975,1.897,0.228,4.225-1.67,5.2
							c-1.897,0.975-4.225,0.228-5.2-1.669C390.725,490.387,391.472,488.059,393.369,487.083z"/>
						<path style="fill:#020106;" d="M409.591,450.689c1.897-0.975,4.225-0.228,5.2,1.669c0.975,1.897,0.227,4.225-1.67,5.2
							c-1.897,0.975-4.225,0.228-5.2-1.669C406.946,453.992,407.694,451.664,409.591,450.689z"/>
						<path style="fill:#020106;" d="M454.503,433.512c1.897-0.975,4.225-0.228,5.2,1.67c0.975,1.897,0.228,4.225-1.669,5.2
							s-4.225,0.228-5.2-1.669C451.859,436.815,452.606,434.487,454.503,433.512z"/>
						<path style="fill:#020106;" d="M435.246,396.043c1.897-0.975,4.225-0.228,5.2,1.67c0.975,1.897,0.228,4.225-1.669,5.2
							c-1.897,0.975-4.225,0.228-5.2-1.669C432.601,399.346,433.348,397.018,435.246,396.043z"/>
						<path style="fill:#020106;" d="M474.875,473.149c1.897-0.975,4.225-0.228,5.2,1.669c0.975,1.897,0.228,4.225-1.67,5.2
							c-1.897,0.975-4.225,0.228-5.2-1.669C472.231,476.452,472.978,474.124,474.875,473.149z"/>
						<path style="fill:#020106;" d="M431.119,477.475c1.897-0.975,4.225-0.228,5.2,1.669c0.975,1.897,0.228,4.225-1.67,5.2
							c-1.897,0.975-4.225,0.228-5.2-1.67C428.475,480.779,429.222,478.45,431.119,477.475z"/>
						<path style="fill:#020106;" d="M404.291,405.816c1.897-0.975,4.225-0.228,5.2,1.669c0.975,1.897,0.228,4.225-1.67,5.2
							c-1.897,0.975-4.225,0.228-5.2-1.669C401.647,409.12,402.394,406.791,404.291,405.816z"/>
					</g>
					<path style="fill:none;stroke:#020106;stroke-miterlimit:10;" d="M330.696,409.729c0,0-16.59,28.103-23.226,66.259
						c0,0-1.885,15.69-1.997,23.289"/>
					<path style="fill:none;stroke:#020106;stroke-miterlimit:10;" d="M428.023,407.652c0,0,23.226,44.003,27.65,79.672
						c0,0,1.203,9.159,0.596,11.953"/>
				</g>
			</g>
			<g>
				<g>
					<path style="fill:#FFFDFD;stroke:#020106;stroke-miterlimit:10;" d="M273.938,503.807
						c-8.688-87.966-61.364-155.623-125.06-155.623c-63.696,0-116.372,67.657-125.06,155.623H273.938z"/>
					<path style="fill:none;stroke:#020106;stroke-miterlimit:10;" d="M97.273,396.468c0,0-17.979,30.455-25.17,71.806
						c0,0-4.156,25.239-4.277,33.474"/>
					<path style="fill:none;stroke:#020106;stroke-miterlimit:10;" d="M202.748,394.218c0,0,23.263,42.968,27.639,86.109
						c0,0,3.815,19.77,3.157,22.798"/>
					<g>
						<path style="fill:#FFFFFF;" d="M115.817,258.14c0,0-4.905,48.458,15.821,55.254c20.726,6.795,36.101,4.239,42.853-1.278
							c6.752-5.517,15.429-44.888,13.469-47.457c-1.96-2.569-31.347-30.77-31.347-30.77S116.135,253.596,115.817,258.14z"/>
						<g>
							<g>
								<g>
									<path style="fill:#FFFEFD;stroke:#020106;stroke-miterlimit:10;" d="M164.389,348.079
										c-0.15,6.398-5.508,11.511-11.906,11.361l-4.956-0.116c-6.398-0.15-11.511-5.508-11.361-11.906l0.562-23.938
										c0.15-6.398,5.508-11.511,11.906-11.361l4.955,0.116c6.399,0.15,11.511,5.508,11.361,11.906L164.389,348.079z"/>
									<g>
										<g>
											<path style="fill:#FFFEFD;stroke:#020106;stroke-miterlimit:10;" d="M201.312,286.374
												c-0.355,6.18-5.695,10.9-11.925,10.542c-6.231-0.358-10.993-5.659-10.638-11.839c0.355-6.18,5.694-10.9,11.925-10.541
												C196.905,274.894,201.668,280.194,201.312,286.374z"/>
											<g>
												<g>
													<path style="fill:#020202;" d="M184.321,286.853c-0.001-0.233,0.02-0.467,0.046-0.698
														c0.006-0.056,0.013-0.112,0.02-0.168c-0.018,0.139,0.01-0.065,0.015-0.092c0.023-0.142,0.048-0.284,0.077-0.425
														c0.063-0.309,0.143-0.614,0.24-0.914c0.458-1.412,1.408-2.723,2.87-3.309c1.207-0.483,2.558-0.474,3.823-0.269
														c0.602,0.097,0.861-0.824,0.254-0.922c-2.274-0.369-4.747-0.122-6.397,1.652c-1.03,1.107-1.596,2.582-1.809,4.063
														c-0.051,0.357-0.098,0.72-0.096,1.082C183.369,287.467,184.325,287.469,184.321,286.853L184.321,286.853z"/>
												</g>
											</g>
										</g>
										<g>
											<path style="fill:#FFFEFD;stroke:#020106;stroke-miterlimit:10;" d="M98.943,285.077
												c-0.355,6.18,4.407,11.481,10.638,11.839c6.231,0.358,11.57-4.361,11.925-10.541c0.355-6.18-4.408-11.481-10.638-11.839
												C104.638,274.177,99.299,278.897,98.943,285.077z"/>
											<g>
												<g>
													<path style="fill:#020202;" d="M116.72,287.555c0.318-2.607-0.76-5.611-3.168-6.871
														c-1.296-0.678-2.786-0.851-4.23-0.784c-0.613,0.028-0.616,0.984,0,0.956c2.016-0.093,4.201,0.359,5.397,2.091
														c0.771,1.117,1.055,2.43,1.078,3.72c0.005,0.295,0.003,0.595-0.033,0.888c-0.031,0.258,0.242,0.476,0.478,0.478
														C116.526,288.035,116.689,287.81,116.72,287.555L116.72,287.555z"/>
												</g>
											</g>
										</g>
									</g>
									<path style="fill:none;stroke:#020106;stroke-miterlimit:10;" d="M186.359,295.846
										c-0.957,16.645-15.359,29.48-32.004,28.523l-9.964-0.573c-16.645-0.957-29.48-15.359-28.523-32.004l1.6-27.828
										c0.957-16.645,15.359-29.48,32.004-28.523l9.964,0.573c16.645,0.957,29.48,15.359,28.523,32.004L186.359,295.846z"/>
									<g>
										<polygon style="fill:#F76A59;" points="152.567,266.313 148.052,282.518 156.613,282.665 										"/>
										<g>
											<path style="fill:#0C0C0C;" d="M133.63,272.781c-0.158,2.279-2.133,3.998-4.412,3.841
												c-2.279-0.158-3.998-2.133-3.84-4.412c0.158-2.279,2.133-3.998,4.412-3.841
												C132.068,268.526,133.787,270.502,133.63,272.781z"/>
											<path style="fill:#0C0C0C;" d="M177.49,272.781c-0.158,2.279-2.133,3.998-4.412,3.84
												c-2.279-0.158-3.999-2.133-3.841-4.412c0.158-2.279,2.133-3.998,4.412-3.84
												C175.928,268.527,177.648,270.502,177.49,272.781z"/>
										</g>
										<g>
											<path style="fill:#FCD9E7;" d="M135.662,289.866c-0.559,4.937-5.015,8.486-9.952,7.926
												c-4.937-0.56-8.486-5.015-7.926-9.952c0.56-4.937,5.015-8.486,9.952-7.926
												C132.672,280.473,136.221,284.929,135.662,289.866z"/>
											<path style="fill:#FCD9E7;" d="M184.947,289.866c-0.56,4.937-5.015,8.486-9.952,7.926
												c-4.937-0.559-8.486-5.015-7.926-9.952c0.559-4.937,5.015-8.485,9.952-7.926
												C181.958,280.473,185.507,284.929,184.947,289.866z"/>
										</g>
										<path style="stroke:#0C0C0C;stroke-width:0.2089;stroke-miterlimit:10;" d="M118.951,242.484
											c0,0-1.753,28.288,3.513,40.002c5.266,11.713,10.703,13.702,16.648,11.271c5.946-2.431,12.232-7.735,18.517-2.431
											c6.286,5.304,17.035,7.578,21.235-6.63c4.2-14.208,3.907-38.675,3.907-38.675l6.116,2.401c0,0,1.893,32.619-3.883,56.488
											c-5.776,23.868-36.03,22.662-49.286,18.021c-13.255-4.641-22.455-21.216-22.017-39.78
											c0.438-18.564,0.279-38.912,0.279-38.912L118.951,242.484z"/>
										<path style="fill:#FFFFFF;stroke:#0C0C0C;stroke-width:0.2089;stroke-miterlimit:10;" d="M142.044,295.735
											c-0.028,0.279-0.043,0.563-0.043,0.849c0,4.597,3.727,8.324,8.324,8.324c4.597,0,8.324-3.727,8.324-8.324
											c0-0.287-0.015-0.57-0.043-0.849H142.044z"/>
										<path style="fill:#FFFFFF;" d="M113.987,276.631l-4.604-2.143c0,0-5.025-22.572-0.438-32.824
											c2.953-6.6,3.833-10.397,8.78-14.507c2.738-2.274,6.719-5.211,12.99-7.426c17.604-6.216,32.652-1.036,36.295,1.164
											c3.643,2.2,11.575,7.054,14.348,12.231c2.773,5.178,2.628,4.932,3.517,5.973c0.889,1.042,6.133,6.935,6.813,14.324
											s0.463,11.377-0.508,16.142c-0.853,4.191-1.995,5.825-1.995,5.825l-1.176,2.581l-9.364-14c0,0-3.931-3.707-13.404-5.13
											s-16.812-2.864-27.058-1.132l-11.461,2.025c0,0-4.853,2.266-9.439,9.571C112.696,276.614,113.987,276.631,113.987,276.631
											z"/>
										<g>
											<path style="fill:none;stroke:#0C0C0C;stroke-miterlimit:10;" d="M113.702,276.266c0,0,12.5-34.902,70.429-37.96
												c0,0-8.593-18.704-28.54-20.726c-25.143-2.548-57.42,6.452-46.208,56.909L113.702,276.266z"/>
											<path style="fill:none;stroke:#0C0C0C;stroke-miterlimit:10;" d="M156.613,242.8
												c16.141,8.571,31.396,35.175,31.396,35.175l2.022-4.438c0,0,8.031-20.961-5.899-35.232"/>
											<path style="fill:none;stroke:#0C0C0C;stroke-miterlimit:10;" d="M167.011,240.309c0,0,20.078,12.479,25.225,24.35"/>
											<path style="fill:none;stroke:#0C0C0C;stroke-miterlimit:10;" d="M125.367,260.102c0,0,28.112-8.399,52.612,2.995"/>
											<g>
												<path style="fill:none;stroke:#0C0C0C;stroke-miterlimit:10;" d="M107.014,255.634c0,0,17.169-20.729,53.62-13.932"/>
												<path style="fill:none;stroke:#0C0C0C;stroke-miterlimit:10;" d="M119.788,225.404c0,0,34.753-10.939,59.18,13.269"/>
											</g>
										</g>
									</g>
								</g>
							</g>
						</g>
					</g>
				</g>
				<path style="fill:#FCE207;stroke:#1C191B;stroke-miterlimit:10;" d="M165.923,359.174h-32.452c-3.086,0-5.588-2.502-5.588-5.588
					v-10.804c0-3.086,2.502-5.588,5.588-5.588h32.452c3.086,0,5.588,2.502,5.588,5.588v10.804
					C171.511,356.672,169.009,359.174,165.923,359.174z"/>
			</g>
			<g>
				<path style="fill:#FFFDFD;stroke:#020106;stroke-miterlimit:10;" d="M4.674,348.449c1.25-1.623,58.355-4.243,79.196,13.799
					c20.841,18.042,21.466,46.163,13.442,42.933c-3.072-1.237-11.15-27.093-11.15-27.093s10.056,31.406,2.293,34.112
					c-4.377,1.526-8.753-26.818-8.753-26.818s6.044,30.428-0.625,31.47c-5.42,0.847-7.711-25.139-7.711-25.139
					s3.351,28.827-3.335,28.057c-7.503-0.865-3.126-26.051-11.879-28.057c-4.052-0.928-50.227-1.797-51.477,0
					C3.424,393.51,4.674,348.449,4.674,348.449z"/>
				<path style="fill:#762AE2;stroke:#000000;stroke-width:0.9716;stroke-miterlimit:10;" d="M20.243,407.118H8.854
					c-7.618,0-13.794-6.176-13.794-13.794v-43.751c0-7.618,6.176-13.794,13.794-13.794h11.389c7.618,0,13.794,6.176,13.794,13.794
					v43.751C34.037,400.942,27.861,407.118,20.243,407.118z"/>
			</g>
		</g>
	</g>
</g>
</svg>
